<?xml version="1.0" encoding="utf-8"?>
<!-- Generator: Adobe Illustrator 15.1.0, SVG Export Plug-In . SVG Version: 6.00 Build 0)  -->
<!DOCTYPE svg PUBLIC "-//W3C//DTD SVG 1.1//EN" "http://www.w3.org/Graphics/SVG/1.1/DTD/svg11.dtd">
<svg version="1.1" id="Layer_1" xmlns="http://www.w3.org/2000/svg" xmlns:xlink="http://www.w3.org/1999/xlink" x="0px" y="0px"
	 width="104.877px" height="103.878px" viewBox="0 0 104.877 103.878" enable-background="new 0 0 104.877 103.878"
	 xml:space="preserve">
<circle fill-rule="evenodd" clip-rule="evenodd" fill="#0792AF" cx="52.438" cy="51.438" r="52.438"/>
<g>
	<path fill-rule="evenodd" clip-rule="evenodd" fill="none" stroke="#FFFFFF" stroke-miterlimit="10" d="M27.895,36.024
		c3.624-2.83,3.784-11.635-2.502-10.605c-4.645,1.684-3.151,7.896-0.395,10.605"/>
	<path fill-rule="evenodd" clip-rule="evenodd" fill="none" stroke="#FFFFFF" stroke-miterlimit="10" d="M27.895,36.024
		c4.503,4.867,2.35,11.695,3.549,17.684c3.419,2.323,8.881-1.112,11.436,2.936c1.248,6.471,2.083,12.992,2.555,19.518
		c-0.17,0.941-1.244,1.5-2.137,1.359c-4.09-4.457-2.256-12.013-4.732-17.527c-3.642-0.918-7.631-0.16-11.406-0.412
		c-7.555-2.904-5.127-12.461-5.896-18.853c0.447-2.217,3.461-2.465,3.736-4.705"/>
	<path fill-rule="evenodd" clip-rule="evenodd" fill="#FFFFFF" d="M68.234,43.817c0,1.166-1.307,2.111-2.919,2.111H39.603
		c-1.612,0-2.919-0.945-2.919-2.111l0,0c0-1.166,1.307-2.11,2.919-2.11h25.713C66.928,41.707,68.234,42.652,68.234,43.817
		L68.234,43.817z"/>
	<path fill-rule="evenodd" clip-rule="evenodd" fill="#FFFFFF" d="M36.062,75.755c0,0.789-0.639,1.428-1.428,1.428H17.368
		c-0.788,0-1.429-0.639-1.429-1.428l0,0c0-0.789,0.641-1.43,1.429-1.43h17.267C35.424,74.326,36.062,74.966,36.062,75.755
		L36.062,75.755z"/>
	<path fill-rule="evenodd" clip-rule="evenodd" fill="#FFFFFF" d="M26.871,74.388c0,0.754-0.611,1.367-1.367,1.367l0,0
		c-0.754,0-1.365-0.613-1.365-1.367V62.464c0-0.755,0.611-1.367,1.365-1.367l0,0c0.756,0,1.367,0.612,1.367,1.367V74.388z"/>
	<path fill-rule="evenodd" clip-rule="evenodd" fill="#FFFFFF" d="M36.575,61.097c0,0-12.083,1.6-15.61-3.118
		c-3.529-4.718-3.062-23.801-3.062-23.801c-0.098-0.757-0.789-1.292-1.547-1.195c-0.758,0.098-1.292,0.791-1.195,1.547
		c0,0,0.46,22.197,4.43,25.979c3.969,3.781,16.985,3.353,16.985,3.353c0.763,0,1.382-0.619,1.382-1.382
		C37.957,61.716,37.338,61.097,36.575,61.097z"/>
	<path fill-rule="evenodd" clip-rule="evenodd" fill="none" stroke="#FFFFFF" stroke-miterlimit="10" d="M76.982,36.024
		c-3.624-2.83-3.784-11.635,2.502-10.605c4.645,1.684,3.151,7.896,0.395,10.605"/>
	<path fill-rule="evenodd" clip-rule="evenodd" fill="none" stroke="#FFFFFF" stroke-miterlimit="10" d="M76.982,36.024
		c-4.503,4.867-2.35,11.695-3.549,17.684c-3.419,2.323-8.881-1.112-11.435,2.936c-1.249,6.471-2.084,12.992-2.556,19.518
		c0.17,0.941,1.244,1.5,2.137,1.359c4.09-4.457,2.256-12.013,4.732-17.527c3.642-0.918,7.631-0.16,11.406-0.412
		c7.555-2.904,5.127-12.461,5.896-18.853c-0.447-2.217-3.46-2.465-3.736-4.705"/>
	<path fill-rule="evenodd" clip-rule="evenodd" fill="#FFFFFF" d="M68.814,75.755c0,0.789,0.64,1.428,1.428,1.428h17.267
		c0.788,0,1.429-0.639,1.429-1.428l0,0c0-0.789-0.641-1.43-1.429-1.43H70.242C69.454,74.326,68.814,74.966,68.814,75.755
		L68.814,75.755z"/>
	<path fill-rule="evenodd" clip-rule="evenodd" fill="#FFFFFF" d="M78.006,74.388c0,0.754,0.612,1.367,1.367,1.367l0,0
		c0.754,0,1.365-0.613,1.365-1.367V62.464c0-0.755-0.611-1.367-1.365-1.367l0,0c-0.755,0-1.367,0.612-1.367,1.367V74.388z"/>
	<path fill-rule="evenodd" clip-rule="evenodd" fill="#FFFFFF" d="M68.302,61.097c0,0,12.083,1.6,15.611-3.118
		s3.062-23.801,3.062-23.801c0.098-0.757,0.79-1.292,1.547-1.195c0.758,0.098,1.293,0.791,1.195,1.547c0,0-0.46,22.197-4.43,25.979
		c-3.969,3.781-16.985,3.353-16.985,3.353c-0.763,0-1.382-0.619-1.382-1.382C66.92,61.716,67.539,61.097,68.302,61.097z"/>
</g>
</svg>
