<?xml version="1.0" encoding="utf-8"?>
<!-- Generator: Adobe Illustrator 15.1.0, SVG Export Plug-In . SVG Version: 6.00 Build 0)  -->
<!DOCTYPE svg PUBLIC "-//W3C//DTD SVG 1.1//EN" "http://www.w3.org/Graphics/SVG/1.1/DTD/svg11.dtd">
<svg version="1.1" id="Layer_1" xmlns="http://www.w3.org/2000/svg" xmlns:xlink="http://www.w3.org/1999/xlink" x="0px" y="0px"
	 width="104.877px" height="103.878px" viewBox="0 0 104.877 103.878" enable-background="new 0 0 104.877 103.878"
	 xml:space="preserve">
<circle fill-rule="evenodd" clip-rule="evenodd" fill="#FDB814" cx="52.438" cy="51.939" r="44.065"/>
<g>
	<path fill="#FFFFFF" d="M33.729,51.911c0-1.284,0.404-2.302,1.212-3.055c0.806-0.751,1.87-1.127,3.191-1.127
		c1.394,0,2.494,0.376,3.301,1.127c0.808,0.753,1.211,1.771,1.211,3.055c0,1.285-0.403,2.311-1.211,3.082
		c-0.807,0.77-1.907,1.155-3.301,1.155c-1.321,0-2.386-0.386-3.191-1.155C34.134,54.221,33.729,53.196,33.729,51.911z"/>
	<path fill="#FFFFFF" d="M47.98,51.911c0-1.284,0.404-2.302,1.212-3.055c0.806-0.751,1.87-1.127,3.191-1.127
		c1.394,0,2.494,0.376,3.301,1.127c0.808,0.753,1.211,1.771,1.211,3.055c0,1.285-0.403,2.311-1.211,3.082
		c-0.807,0.77-1.907,1.155-3.301,1.155c-1.321,0-2.386-0.386-3.191-1.155C48.385,54.221,47.98,53.196,47.98,51.911z"/>
	<path fill="#FFFFFF" d="M62.231,51.911c0-1.284,0.404-2.302,1.212-3.055c0.806-0.751,1.87-1.127,3.191-1.127
		c1.394,0,2.494,0.376,3.302,1.127c0.807,0.753,1.21,1.771,1.21,3.055c0,1.285-0.403,2.311-1.21,3.082
		c-0.808,0.77-1.908,1.155-3.302,1.155c-1.321,0-2.386-0.386-3.191-1.155C62.636,54.221,62.231,53.196,62.231,51.911z"/>
</g>
</svg>
