<?xml version="1.0" encoding="utf-8"?>
<!-- Generator: Adobe Illustrator 15.1.0, SVG Export Plug-In . SVG Version: 6.00 Build 0)  -->
<!DOCTYPE svg PUBLIC "-//W3C//DTD SVG 1.1//EN" "http://www.w3.org/Graphics/SVG/1.1/DTD/svg11.dtd">
<svg version="1.1" id="Layer_1" xmlns="http://www.w3.org/2000/svg" xmlns:xlink="http://www.w3.org/1999/xlink" x="0px" y="0px"
	 width="104.877px" height="103.878px" viewBox="0 0 104.877 103.878" enable-background="new 0 0 104.877 103.878"
	 xml:space="preserve">
<g>
	<path fill-rule="evenodd" clip-rule="evenodd" fill="#0792AF" d="M65.924,70.625c0,0.552-0.45,1.001-1.002,1.001H41.367
		c-0.554,0-1.002-0.449-1.002-1.001l0,0c0-0.554,0.448-1.003,1.002-1.003h23.556C65.474,69.622,65.924,70.07,65.924,70.625
		L65.924,70.625z"/>
	<path fill-rule="evenodd" clip-rule="evenodd" fill="#0792AF" d="M63.207,67.405c0,0.422-0.343,0.765-0.766,0.765H44.462
		c-0.422,0-0.765-0.342-0.765-0.765l0,0c0-0.422,0.343-0.765,0.765-0.765h17.979C62.864,66.64,63.207,66.982,63.207,67.405
		L63.207,67.405z"/>
	<path fill-rule="evenodd" clip-rule="evenodd" fill="#0792AF" d="M69.857,37.519c-1.512-0.049-4.504-0.011-6.469-0.185
		c-0.499-3.088,2.05-3.129,3.715-4.052c0.094-0.545-0.339-1.013-0.339-1.013l-14.047-0.018l0,0h-0.062h-0.063l0,0L38.543,32.27
		c0,0-0.433,0.468-0.337,1.013c1.665,0.923,4.213,0.964,3.715,4.052c-1.965,0.173-4.956,0.135-6.469,0.185
		c-1.385,5.124,2.438,8.44,6.469,9.269c0.168,3.44,1.489,5.727,3.383,7.443c1.352,1.228,3.864,2.98,7.334,3.026
		c3.47,0.047,6.545-2.104,8.002-3.647c1.548-1.642,2.601-3.782,2.748-6.823C67.418,45.959,71.242,42.643,69.857,37.519z
		 M41.921,44.762c-2.701-0.563-4.773-1.756-4.391-5.402c1.463,0,2.927,0,4.391,0C41.921,41.16,41.921,42.962,41.921,44.762z
		 M61.026,50.164c-1.4,3.37-5.218,5.371-8.371,5.399c-3.154-0.029-6.972-2.03-8.371-5.399c-1.68-4.046,0.42-11.473-1.352-15.869
		c2.802-0.376,8.938-0.29,9.685-0.278v0.001c0,0,0.016,0,0.038,0s0.038,0,0.038,0v-0.001c0.748-0.012,6.883-0.098,9.684,0.278
		C60.605,38.691,62.705,46.118,61.026,50.164z M63.388,44.762c0-1.8,0-3.602,0-5.402c1.463,0,2.927,0,4.391,0
		C68.16,43.006,66.089,44.198,63.388,44.762z"/>
	<path fill-rule="evenodd" clip-rule="evenodd" fill="#0792AF" d="M51.4,67.122c0,0.371-0.3,0.671-0.671,0.671l0,0
		c-0.37,0-0.672-0.3-0.672-0.671V57.23c0-0.372,0.302-0.672,0.672-0.672l0,0c0.371,0,0.671,0.3,0.671,0.672V67.122z"/>
	<path fill-rule="evenodd" clip-rule="evenodd" fill="#0792AF" d="M55.132,67.122c0,0.371-0.301,0.671-0.672,0.671l0,0
		c-0.371,0-0.67-0.3-0.67-0.671V57.23c0-0.372,0.299-0.672,0.67-0.672l0,0c0.371,0,0.672,0.3,0.672,0.672V67.122z"/>
</g>
</svg>
