<?xml version="1.0" encoding="utf-8"?>
<!-- Generator: Adobe Illustrator 15.1.0, SVG Export Plug-In . SVG Version: 6.00 Build 0)  -->
<!DOCTYPE svg PUBLIC "-//W3C//DTD SVG 1.1//EN" "http://www.w3.org/Graphics/SVG/1.1/DTD/svg11.dtd">
<svg version="1.1" id="Layer_1" xmlns="http://www.w3.org/2000/svg" xmlns:xlink="http://www.w3.org/1999/xlink" x="0px" y="0px"
	 width="104.877px" height="103.878px" viewBox="0 0 104.877 103.878" enable-background="new 0 0 104.877 103.878"
	 xml:space="preserve">
<circle fill-rule="evenodd" clip-rule="evenodd" fill="#0792AF" cx="52.438" cy="51.939" r="52.438"/>
<g>
	<path fill-rule="evenodd" clip-rule="evenodd" fill="#FFFFFF" d="M73.875,82.125c0,0.894-0.725,1.618-1.618,1.618H34.203
		c-0.895,0-1.619-0.725-1.619-1.618l0,0c0-0.895,0.725-1.619,1.619-1.619h38.054C73.15,80.506,73.875,81.23,73.875,82.125
		L73.875,82.125z"/>
	<path fill-rule="evenodd" clip-rule="evenodd" fill="#FFFFFF" d="M69.485,76.924c0,0.683-0.554,1.235-1.235,1.235H39.205
		c-0.683,0-1.235-0.553-1.235-1.235l0,0c0-0.683,0.553-1.235,1.235-1.235H68.25C68.931,75.688,69.485,76.241,69.485,76.924
		L69.485,76.924z"/>
	<path fill-rule="evenodd" clip-rule="evenodd" fill="#FFFFFF" d="M80.229,28.644c-2.443-0.08-7.276-0.019-10.449-0.299
		c-0.807-4.988,3.31-5.055,6-6.546c0.153-0.881-0.546-1.637-0.546-1.637L52.54,20.135l0,0h-0.102h-0.102l0,0l-22.694,0.027
		c0,0-0.699,0.756-0.546,1.637c2.691,1.491,6.807,1.558,6.001,6.546c-3.174,0.28-8.007,0.219-10.449,0.299
		c-2.236,8.277,3.939,13.635,10.449,14.974c0.272,5.558,2.408,9.251,5.466,12.024c2.186,1.983,6.243,4.814,11.849,4.89
		s10.573-3.399,12.926-5.893c2.502-2.652,4.201-6.108,4.442-11.021C76.289,42.278,82.465,36.921,80.229,28.644z M35.097,40.344
		c-4.363-0.909-7.709-2.837-7.091-8.727c2.363,0,4.727,0,7.091,0C35.097,34.526,35.097,37.436,35.097,40.344z M65.961,49.071
		c-2.261,5.443-8.428,8.677-13.523,8.723c-5.096-0.046-11.263-3.279-13.523-8.723c-2.714-6.536,0.679-18.535-2.182-25.637
		c4.524-0.608,14.437-0.469,15.645-0.448v0.002c0,0,0.024-0.001,0.061-0.001s0.062,0.001,0.062,0.001v-0.002
		c1.208-0.021,11.119-0.16,15.644,0.448C65.283,30.536,68.675,42.535,65.961,49.071z M69.78,40.344c0-2.908,0-5.817,0-8.727
		c2.363,0,4.728,0,7.091,0C77.488,37.507,74.143,39.435,69.78,40.344z"/>
	<path fill-rule="evenodd" clip-rule="evenodd" fill="#FFFFFF" d="M50.412,76.467c0,0.599-0.485,1.084-1.084,1.084l0,0
		c-0.6,0-1.085-0.485-1.085-1.084v-15.98c0-0.6,0.485-1.085,1.085-1.085l0,0c0.599,0,1.084,0.485,1.084,1.085V76.467z"/>
	<path fill-rule="evenodd" clip-rule="evenodd" fill="#FFFFFF" d="M56.441,76.467c0,0.599-0.485,1.084-1.084,1.084l0,0
		c-0.6,0-1.085-0.485-1.085-1.084v-15.98c0-0.6,0.485-1.085,1.085-1.085l0,0c0.599,0,1.084,0.485,1.084,1.085V76.467z"/>
</g>
</svg>
