<?xml version="1.0" encoding="utf-8"?>
<!-- Generator: Adobe Illustrator 15.1.0, SVG Export Plug-In . SVG Version: 6.00 Build 0)  -->
<!DOCTYPE svg PUBLIC "-//W3C//DTD SVG 1.1//EN" "http://www.w3.org/Graphics/SVG/1.1/DTD/svg11.dtd">
<svg version="1.1" id="Layer_1" xmlns="http://www.w3.org/2000/svg" xmlns:xlink="http://www.w3.org/1999/xlink" x="0px" y="0px"
	 width="104.877px" height="103.878px" viewBox="0 0 104.877 103.878" enable-background="new 0 0 104.877 103.878"
	 xml:space="preserve">
<circle fill-rule="evenodd" clip-rule="evenodd" fill="#0792AF" cx="52.438" cy="51.939" r="52.438"/>
<g>
	<path fill-rule="evenodd" clip-rule="evenodd" fill="#FFFFFF" d="M53.137,37.047c-13.276,0-24.038,10.762-24.038,24.038
		s10.762,24.038,24.038,24.038c13.277,0,24.039-10.762,24.039-24.038S66.414,37.047,53.137,37.047z M53.137,81.104
		c-11.056,0-20.02-8.963-20.02-20.02s8.963-20.02,20.02-20.02c11.057,0,20.021,8.963,20.021,20.02S64.193,81.104,53.137,81.104z"/>
	<path fill-rule="evenodd" clip-rule="evenodd" fill="#FFFFFF" d="M53.221,18.695V18.68c-0.268,0.001-0.52,0.006-0.781,0.008
		c-0.262-0.002-0.515-0.007-0.781-0.008l-0.001,0.016C11.5,19.268,28.401,36.59,32.775,41.097c1.381-0.899,2.95-2.458,2.95-2.458
		s-6.946-7.316-5.408-11.799c0.808-2.355,11.322-3.516,22.123-3.61c10.801,0.095,21.314,1.255,22.121,3.61
		c1.537,4.482-5.407,11.799-5.407,11.799s1.568,1.559,2.95,2.458C76.478,36.59,93.377,19.268,53.221,18.695z"/>
	<path fill-rule="evenodd" clip-rule="evenodd" fill="#FFFFFF" d="M53.138,45.911c-8.38,0-15.174,6.794-15.174,15.174
		c0,8.379,6.794,15.173,15.174,15.173s15.173-6.794,15.173-15.173C68.311,52.705,61.518,45.911,53.138,45.911z M53.138,72.296
		c-6.192,0-11.212-5.019-11.212-11.211c0-6.191,5.02-11.212,11.212-11.212s11.21,5.021,11.21,11.212
		C64.348,67.277,59.33,72.296,53.138,72.296z"/>
</g>
</svg>
